<svg width="187" height="40" viewBox="0 0 187 40" fill="none" xmlns="http://www.w3.org/2000/svg">
<path d="M60.8292 15.9827L58.5518 23.2698H63.0746L60.8292 15.9827ZM55.8895 31.26H49.7949L58.5518 8.53589H63.1069L71.8634 31.26H65.705L64.5824 27.9679H57.0443L55.8895 31.26Z" fill="white"/>
<path d="M76.836 31.26L70.6772 14.0969H76.2265L79.4341 25.1875L82.8341 14.0969H88.1907L81.9361 31.26H76.836Z" fill="white"/>
<path d="M97.2671 26.9133C99.5123 26.9133 101.341 25.0276 101.341 22.6944C101.341 20.3294 99.5123 18.4438 97.2671 18.4438C95.0217 18.4438 93.1931 20.3294 93.1931 22.6944C93.1931 25.0276 95.0536 26.9133 97.2671 26.9133ZM90.8196 16.3344C92.552 14.6085 94.8291 13.6496 97.1707 13.6496C99.6726 13.6496 101.822 14.5125 103.554 16.1424C105.382 17.8685 106.376 20.2333 106.376 22.5667C106.376 25.1555 105.51 27.2966 103.778 29.0225C102.014 30.7803 99.833 31.7073 97.2349 31.7073C94.6048 31.7073 92.4878 30.8123 90.7234 28.9589C89.0556 27.233 88.1892 25.0276 88.1892 22.6305C88.1892 20.2333 89.1195 18.0282 90.8196 16.3344Z" fill="white"/>
<path d="M125.587 25.1236C124.304 29.2464 120.968 31.7073 116.766 31.7073C114.136 31.7073 112.019 30.8123 110.255 28.9589C108.587 27.201 107.721 24.9635 107.721 22.5667C107.721 20.1696 108.651 17.9962 110.351 16.2704C112.115 14.4805 114.232 13.5856 116.702 13.5856C121.032 13.5856 124.208 15.9507 125.587 20.2974H120.23C119.525 19.1148 118.338 18.4758 116.67 18.4758C114.393 18.4758 112.725 20.2016 112.725 22.5667C112.725 25.1874 114.393 26.8174 116.83 26.8174C118.21 26.8174 119.332 26.242 120.166 25.1236H125.587Z" fill="white"/>
<path d="M136.622 26.7854C138.803 26.7854 140.632 24.9955 140.632 22.6305C140.632 20.1696 138.803 18.3158 136.43 18.3158C134.024 18.3158 132.164 20.2652 132.164 22.5667C132.164 24.9635 134.024 26.7854 136.622 26.7854ZM140.599 29.3421C139.092 30.8123 137.552 31.3555 135.5 31.3555C133.415 31.3555 131.618 30.6847 130.111 29.3421C128.122 27.5843 127.095 25.2832 127.095 22.5985C127.095 20.1376 128.058 17.9321 129.854 16.2063C131.458 14.6404 133.415 13.8413 135.595 13.8413C137.681 13.8413 139.285 14.5445 140.439 16.0147V14.0968H145.507V31.26H140.599V29.3421Z" fill="white"/>
<path d="M157.408 26.7854C159.589 26.7854 161.417 24.9955 161.417 22.6305C161.417 20.1696 159.589 18.3158 157.215 18.3158C154.809 18.3158 152.949 20.2652 152.949 22.5667C152.949 24.9635 154.809 26.7854 157.408 26.7854ZM161.385 29.3421C159.878 30.8123 158.338 31.3555 156.285 31.3555C154.2 31.3555 152.404 30.6847 150.896 29.3421C148.907 27.5843 147.881 25.2832 147.881 22.5985C147.881 20.1376 148.843 17.9321 150.639 16.2062C152.243 14.6404 154.2 13.8413 156.381 13.8413C158.466 13.8413 160.07 14.5445 161.224 16.0147V8.53584H166.293V31.26H161.385V29.3421Z" fill="white"/>
<path d="M177.739 26.9133C179.985 26.9133 181.813 25.0276 181.813 22.6944C181.813 20.3294 179.985 18.4438 177.739 18.4438C175.494 18.4438 173.666 20.3294 173.666 22.6944C173.666 25.0276 175.527 26.9133 177.739 26.9133ZM171.292 16.3344C173.024 14.6085 175.302 13.6496 177.643 13.6496C180.145 13.6496 182.294 14.5125 184.027 16.1424C185.854 17.8685 186.849 20.2333 186.849 22.5667C186.849 25.1555 185.983 27.2966 184.251 29.0225C182.487 30.7803 180.306 31.7073 177.707 31.7073C175.077 31.7073 172.96 30.8123 171.196 28.9589C169.528 27.233 168.662 25.0276 168.662 22.6305C168.662 20.2333 169.592 18.0282 171.292 16.3344Z" fill="white"/>
<path d="M45.7707 33.0635L39.5478 13.7413C34.4226 0.747585 22.9322 0.220001 21.1481 0.217525C21.1479 0.217525 21.1474 0.217525 21.147 0.216908C20.1434 0.200218 19.1342 0.260178 18.1202 0.398643C16.9489 0.559052 15.7757 0.825783 14.6131 1.20501C4.14469 4.61963 -1.58416 15.8837 1.84267 26.3145C4.25993 33.6727 10.5986 38.6737 17.7973 39.7873C17.7975 39.7879 18.0328 39.8189 18.0207 39.8161C20.9043 40.203 23.9221 39.9962 26.8671 39.0357C29.5872 38.1483 31.0709 35.2313 30.1804 32.5208C29.2899 29.81 26.3623 28.332 23.6421 29.219C20.3091 30.3062 16.537 29.054 14.0604 26.9004C14.0687 26.9086 14.0761 26.9169 14.0845 26.9252C13.0153 25.8844 12.1908 24.6116 11.6945 23.101C10.046 18.0832 12.8019 12.6642 17.8382 11.0213C22.8333 9.392 27.989 12.0224 29.6815 16.9616L35.8944 36.2849C36.7828 38.9893 39.714 40.4604 42.4412 39.5712C45.1684 38.6818 46.6591 35.7678 45.7707 33.0635Z" fill="#63C34E"/>
</svg>
